# xmcd
#
# Track frame offsets: 
#        150
#        11943
#        25486
#        38830
#        51421
#        63129
#        76647
#        90520
#        103037
#        116626
#        128977
#        140796
#        153670
#        166681
#        180534
#        192514
#        205122
#        217023
#        230070
#        241420
#        253516
#        263687
#        276791
#
# Disc length: 3866 seconds
#
# Revision: 0
# Processed by: cddbd v1.5.2PL0 Copyright (c) Steve Scherf et al.
# Submitted via: ExactAudioCopy v0.95b4
#
DISCID=4a0f1817
DTITLE=Dave Bartholomew - The King Sides
DYEAR=2004
DGENRE=R&B
TTITLE0=Stardust
TTITLE1=She's Got Great Big Eyes
TTITLE2=Dave's Boogie Woogie
TTITLE3=Gumbo Blues
TTITLE4=Bum Mae
TTITLE5=Mr. Fool
TTITLE6=Country Boy
TTITLE7=High Society Blues
TTITLE8=Girl Town Blues
TTITLE9=In The Alley
TTITLE10=Sweet Home Blues
TTITLE11=Bad Habit
TTITLE12=Twins
TTITLE13=Golden Rule
TTITLE14=High Flying Woman
TTITLE15=I'll Never Be The Same
TTITLE16=Mother Knows Best
TTITLE17=Stormy Weather
TTITLE18=Lawdy Lawdy Lord (part 1)
TTITLE19=Lawdy Lawdy Lort (part 2)
TTITLE20=My Ding-A-Ling
TTITLE21=Twins (alt. take)
TTITLE22=Golden Rule (alt. take)
EXTD=
EXTT0=
EXTT1=
EXTT2=
EXTT3=
EXTT4=
EXTT5=
EXTT6=
EXTT7=
EXTT8=
EXTT9=
EXTT10=
EXTT11=
EXTT12=
EXTT13=
EXTT14=
EXTT15=
EXTT16=
EXTT17=
EXTT18=
EXTT19=
EXTT20=
EXTT21=
EXTT22=
PLAYORDER=
